<?xml version="1.0" encoding="UTF-8"?>
<svg xmlns="http://www.w3.org/2000/svg" xmlns:xlink="http://www.w3.org/1999/xlink" width="375pt" height="374.999991pt" viewBox="0 0 375 374.999991" version="1.2">
<defs>
<clipPath id="clip1">
  <path d="M 95.0625 39 L 280 39 L 280 336 L 95.0625 336 Z M 95.0625 39 "/>
</clipPath>
</defs>
<g id="surface1">
<path style=" stroke:none;fill-rule:nonzero;fill:rgb(10.198975%,12.548828%,17.248535%);fill-opacity:1;" d="M 143.109375 246.816406 L 153.015625 246.816406 L 153.015625 236.933594 L 143.109375 236.933594 L 143.109375 227.046875 L 153.015625 227.046875 L 153.015625 217.160156 L 143.109375 217.160156 L 143.109375 207.273438 L 182.734375 207.273438 L 182.734375 217.160156 L 172.828125 217.160156 L 172.828125 227.046875 L 182.734375 227.046875 L 182.734375 236.933594 L 172.828125 236.933594 L 172.828125 246.816406 L 182.734375 246.816406 L 182.734375 256.703125 L 143.109375 256.703125 Z M 133.203125 261.648438 C 133.203125 264.371094 135.425781 266.589844 138.15625 266.589844 L 148.0625 266.589844 L 148.0625 276.476562 L 157.96875 276.476562 L 157.96875 266.589844 L 167.875 266.589844 L 167.875 276.476562 L 177.78125 276.476562 L 177.78125 266.589844 L 187.6875 266.589844 C 190.414062 266.589844 192.640625 264.371094 192.640625 261.648438 L 192.640625 246.816406 L 202.546875 246.816406 L 202.546875 236.933594 L 192.640625 236.933594 L 192.640625 227.046875 L 202.546875 227.046875 L 202.546875 217.160156 L 192.640625 217.160156 L 192.640625 202.328125 C 192.640625 199.605469 190.414062 197.386719 187.6875 197.386719 L 177.78125 197.386719 L 177.78125 187.5 L 167.875 187.5 L 167.875 197.386719 L 157.96875 197.386719 L 157.96875 187.5 L 148.0625 187.5 L 148.0625 197.386719 L 138.15625 197.386719 C 135.425781 197.386719 133.203125 199.605469 133.203125 202.328125 L 133.203125 217.160156 L 123.296875 217.160156 L 123.296875 227.046875 L 133.203125 227.046875 L 133.203125 236.933594 L 123.296875 236.933594 L 123.296875 246.816406 L 133.203125 246.816406 L 133.203125 261.648438 "/>
<g clip-path="url(#clip1)" clip-rule="nonzero">
<path style=" stroke:none;fill-rule:nonzero;fill:rgb(10.198975%,12.548828%,17.248535%);fill-opacity:1;" d="M 237.21875 281.421875 L 237.21875 271.535156 L 247.125 271.535156 L 247.125 261.648438 L 237.21875 261.648438 L 237.21875 251.761719 L 263.148438 251.761719 L 262.003906 271.246094 C 261.964844 271.59375 261.984375 271.957031 262.042969 272.304688 L 266.628906 301.191406 L 237.21875 301.191406 L 237.21875 291.308594 L 247.125 291.308594 L 247.125 281.421875 Z M 108.417969 187.152344 C 106.539062 160.949219 118.304688 140.65625 139.722656 132.875 L 153.808594 128.183594 L 157.308594 128.183594 C 145.777344 137.566406 129.894531 153.863281 123.488281 176.261719 L 133.007812 178.964844 C 141.328125 149.960938 168.648438 131.65625 174.222656 128.183594 L 178.84375 128.183594 C 172.730469 138.6875 162.921875 157.859375 162.921875 172.671875 L 172.828125 172.671875 C 172.828125 159.984375 182.097656 142.21875 187.6875 132.679688 C 193.277344 142.21875 202.546875 159.984375 202.546875 172.671875 L 212.453125 172.671875 C 212.453125 157.859375 202.644531 138.6875 196.53125 128.183594 L 201.152344 128.183594 C 206.726562 131.636719 234.027344 149.867188 242.367188 178.964844 L 251.886719 176.261719 C 245.480469 153.863281 229.597656 137.566406 218.066406 128.183594 L 221.566406 128.183594 L 235.59375 132.855469 C 257.109375 140.695312 268.835938 160.988281 266.957031 187.210938 L 263.726562 241.875 L 217.40625 241.875 L 217.40625 251.761719 L 227.3125 251.761719 L 227.3125 261.648438 L 217.40625 261.648438 L 217.40625 271.535156 L 227.3125 271.535156 L 227.3125 281.421875 L 217.40625 281.421875 L 217.40625 291.308594 L 227.3125 291.308594 L 227.3125 301.191406 L 217.40625 301.191406 L 217.40625 311.078125 L 268.195312 311.078125 L 269.609375 320 C 269.898438 321.449219 269.53125 322.953125 268.601562 324.09375 C 267.65625 325.253906 266.242188 325.910156 264.753906 325.910156 L 110.621094 325.910156 C 109.132812 325.910156 107.71875 325.253906 106.773438 324.09375 C 105.84375 322.953125 105.476562 321.449219 105.785156 319.808594 L 113.332031 272.304688 C 113.390625 271.957031 113.410156 271.59375 113.371094 271.246094 Z M 217.40625 108.410156 L 217.40625 118.296875 L 157.96875 118.296875 L 157.96875 108.410156 Z M 146.320312 69.480469 C 145.972656 67.125 147.328125 65.640625 147.945312 65.097656 C 148.585938 64.519531 150.34375 63.300781 152.78125 64.113281 L 166.308594 68.613281 C 167.625 69.039062 169.035156 68.921875 170.253906 68.246094 C 171.472656 67.589844 172.34375 66.449219 172.671875 65.117188 L 174.027344 59.730469 C 175.59375 53.472656 181.207031 49.089844 187.707031 49.089844 C 194.167969 49.089844 199.78125 53.472656 201.347656 59.730469 L 202.703125 65.117188 C 203.03125 66.449219 203.902344 67.589844 205.121094 68.246094 C 206.320312 68.921875 207.75 69.039062 209.066406 68.613281 L 222.59375 64.113281 C 225.03125 63.285156 226.789062 64.519531 227.429688 65.097656 C 228.046875 65.640625 229.402344 67.125 229.054688 69.480469 L 218.839844 98.523438 L 199.953125 98.523438 L 207.152344 80.585938 L 197.941406 76.914062 L 189.292969 98.523438 L 181.84375 98.523438 L 177.683594 77.785156 L 167.972656 79.714844 L 171.746094 98.523438 L 156.535156 98.523438 Z M 99.109375 330.371094 C 101.953125 333.824219 106.132812 335.796875 110.621094 335.796875 L 264.753906 335.796875 C 269.242188 335.796875 273.421875 333.824219 276.265625 330.371094 C 279.089844 326.914062 280.210938 322.433594 279.359375 318.261719 L 271.910156 271.28125 L 276.824219 187.847656 C 279.011719 157.453125 264.480469 132.816406 238.921875 123.527344 C 238.863281 123.527344 238.824219 123.507812 238.785156 123.488281 L 227.3125 119.6875 L 227.3125 104.296875 L 238.554688 72.378906 C 238.613281 72.164062 238.691406 71.933594 238.730469 71.703125 C 239.773438 66.46875 238.011719 61.21875 233.988281 57.683594 C 229.964844 54.128906 224.546875 53.03125 219.457031 54.730469 L 211.023438 57.546875 L 210.964844 57.316406 C 208.273438 46.65625 198.714844 39.203125 187.667969 39.203125 C 176.660156 39.203125 167.101562 46.65625 164.410156 57.335938 L 164.351562 57.546875 L 155.917969 54.730469 C 150.828125 53.03125 145.410156 54.128906 141.386719 57.683594 C 137.363281 61.21875 135.601562 66.46875 136.644531 71.703125 C 136.683594 71.933594 136.761719 72.164062 136.820312 72.378906 L 148.0625 104.296875 L 148.0625 119.6875 L 136.453125 123.527344 C 110.894531 132.816406 96.363281 157.453125 98.550781 187.789062 L 103.464844 271.28125 L 96.035156 318.050781 C 95.164062 322.433594 96.285156 326.914062 99.109375 330.371094 "/>
</g>
<path style=" stroke:none;fill-rule:nonzero;fill:rgb(10.198975%,12.548828%,17.248535%);fill-opacity:1;" d="M 237.21875 207.273438 L 227.3125 207.273438 L 227.3125 217.160156 L 237.21875 217.160156 L 237.21875 207.273438 "/>
<path style=" stroke:none;fill-rule:nonzero;fill:rgb(10.198975%,12.548828%,17.248535%);fill-opacity:1;" d="M 133.203125 296.25 L 123.296875 296.25 L 123.296875 306.136719 L 133.203125 306.136719 L 133.203125 296.25 "/>
<path style=" stroke:none;fill-rule:nonzero;fill:rgb(10.198975%,12.548828%,17.248535%);fill-opacity:1;" d="M 148.0625 316.023438 L 157.96875 316.023438 L 157.96875 306.136719 L 148.0625 306.136719 L 148.0625 316.023438 "/>
</g>
</svg>
